<svg id="visual" viewBox="0 0 960 300" width="960" height="300" xmlns="http://www.w3.org/2000/svg" xmlns:xlink="http://www.w3.org/1999/xlink" version="1.1"><rect x="0" y="0" width="960" height="300" fill="#0066FF"></rect><g transform="translate(484.80507877400703 153.95323218733972)"><path d="M51.2 -61.8C66 -48.6 77.3 -32.1 84.4 -11.9C91.6 8.3 94.5 32.3 84.6 48.4C74.8 64.4 52.1 72.6 31 76.5C10 80.3 -9.4 79.8 -30.1 75.4C-50.7 71 -72.6 62.8 -85.8 46.4C-99 30 -103.7 5.4 -98.5 -16.2C-93.2 -37.8 -78.1 -56.4 -60.1 -69.1C-42 -81.7 -21 -88.4 -1.4 -86.7C18.2 -85 36.4 -75.1 51.2 -61.8" fill="#001122"></path></g></svg>