<svg id="visual" viewBox="0 0 540 960" width="540" height="960" xmlns="http://www.w3.org/2000/svg" xmlns:xlink="http://www.w3.org/1999/xlink" version="1.1"><rect x="0" y="0" width="540" height="960" fill="#000a40"></rect><defs><linearGradient id="grad1_0" x1="0%" y1="0%" x2="100%" y2="100%"><stop offset="30%" stop-color="#001bb3" stop-opacity="1"></stop><stop offset="70%" stop-color="#001bb3" stop-opacity="1"></stop></linearGradient></defs><defs><linearGradient id="grad1_1" x1="0%" y1="0%" x2="100%" y2="100%"><stop offset="30%" stop-color="#001bb3" stop-opacity="1"></stop><stop offset="70%" stop-color="#001678" stop-opacity="1"></stop></linearGradient></defs><defs><linearGradient id="grad1_2" x1="0%" y1="0%" x2="100%" y2="100%"><stop offset="30%" stop-color="#000a40" stop-opacity="1"></stop><stop offset="70%" stop-color="#001678" stop-opacity="1"></stop></linearGradient></defs><defs><linearGradient id="grad2_0" x1="0%" y1="0%" x2="100%" y2="100%"><stop offset="30%" stop-color="#001bb3" stop-opacity="1"></stop><stop offset="70%" stop-color="#001bb3" stop-opacity="1"></stop></linearGradient></defs><defs><linearGradient id="grad2_1" x1="0%" y1="0%" x2="100%" y2="100%"><stop offset="30%" stop-color="#001678" stop-opacity="1"></stop><stop offset="70%" stop-color="#001bb3" stop-opacity="1"></stop></linearGradient></defs><defs><linearGradient id="grad2_2" x1="0%" y1="0%" x2="100%" y2="100%"><stop offset="30%" stop-color="#001678" stop-opacity="1"></stop><stop offset="70%" stop-color="#000a40" stop-opacity="1"></stop></linearGradient></defs><g transform="translate(540, 0)"><path d="M0 513C-26.4 427.5 -52.7 342.1 -109.1 335.7C-165.4 329.4 -251.7 402.2 -284.5 391.6C-317.3 380.9 -296.5 286.8 -329.3 239.2C-362 191.7 -448.3 190.6 -487.9 158.5C-527.4 126.4 -520.2 63.2 -513 0L0 0Z" fill="#00115b"></path><path d="M0 342C-17.6 285 -35.2 228 -72.7 223.8C-110.3 219.6 -167.8 268.1 -189.7 261C-211.5 253.9 -197.7 191.2 -219.5 159.5C-241.4 127.8 -298.9 127.1 -325.3 105.7C-351.6 84.3 -346.8 42.1 -342 0L0 0Z" fill="#001995"></path><path d="M0 171C-8.8 142.5 -17.6 114 -36.4 111.9C-55.1 109.8 -83.9 134.1 -94.8 130.5C-105.8 127 -98.8 95.6 -109.8 79.7C-120.7 63.9 -149.4 63.5 -162.6 52.8C-175.8 42.1 -173.4 21.1 -171 0L0 0Z" fill="#001bb3"></path></g><g transform="translate(0, 960)"><path d="M0 -513C42.8 -483.3 85.6 -453.7 145.2 -447C204.9 -440.3 281.3 -456.6 301.5 -415C321.8 -373.5 285.8 -274 310.7 -225.7C335.5 -177.4 421.2 -180.2 465.1 -151.1C508.9 -122 511 -61 513 0L0 0Z" fill="#00115b"></path><path d="M0 -342C28.5 -322.2 57.1 -302.5 96.8 -298C136.6 -293.5 187.5 -304.4 201 -276.7C214.5 -249 190.5 -182.7 207.1 -150.5C223.7 -118.3 280.8 -120.1 310 -100.7C339.3 -81.3 340.6 -40.7 342 0L0 0Z" fill="#001995"></path><path d="M0 -171C14.3 -161.1 28.5 -151.2 48.4 -149C68.3 -146.8 93.8 -152.2 100.5 -138.3C107.3 -124.5 95.3 -91.3 103.6 -75.2C111.8 -59.1 140.4 -60.1 155 -50.4C169.6 -40.7 170.3 -20.3 171 0L0 0Z" fill="#001bb3"></path></g></svg>