<svg id="visual" viewBox="0 0 900 200" width="900" height="200" xmlns="http://www.w3.org/2000/svg" xmlns:xlink="http://www.w3.org/1999/xlink" version="1.1"><rect x="0" y="0" width="900" height="200" fill="#001220"></rect><path d="M0 129L21.5 129.8C43 130.7 86 132.3 128.8 134.7C171.7 137 214.3 140 257.2 143C300 146 343 149 385.8 149C428.7 149 471.3 146 514.2 140.8C557 135.7 600 128.3 642.8 126.8C685.7 125.3 728.3 129.7 771.2 130.8C814 132 857 130 878.5 129L900 128L900 0L878.5 0C857 0 814 0 771.2 0C728.3 0 685.7 0 642.8 0C600 0 557 0 514.2 0C471.3 0 428.7 0 385.8 0C343 0 300 0 257.2 0C214.3 0 171.7 0 128.8 0C86 0 43 0 21.5 0L0 0Z" fill="#001122"></path><path d="M0 112L21.5 114.8C43 117.7 86 123.3 128.8 122.7C171.7 122 214.3 115 257.2 107.7C300 100.3 343 92.7 385.8 90.3C428.7 88 471.3 91 514.2 97C557 103 600 112 642.8 111.7C685.7 111.3 728.3 101.7 771.2 101.3C814 101 857 110 878.5 114.5L900 119L900 0L878.5 0C857 0 814 0 771.2 0C728.3 0 685.7 0 642.8 0C600 0 557 0 514.2 0C471.3 0 428.7 0 385.8 0C343 0 300 0 257.2 0C214.3 0 171.7 0 128.8 0C86 0 43 0 21.5 0L0 0Z" fill="#002955"></path><path d="M0 83L21.5 82.8C43 82.7 86 82.3 128.8 84.5C171.7 86.7 214.3 91.3 257.2 95.5C300 99.7 343 103.3 385.8 102.5C428.7 101.7 471.3 96.3 514.2 91.2C557 86 600 81 642.8 76.2C685.7 71.3 728.3 66.7 771.2 67.7C814 68.7 857 75.3 878.5 78.7L900 82L900 0L878.5 0C857 0 814 0 771.2 0C728.3 0 685.7 0 642.8 0C600 0 557 0 514.2 0C471.3 0 428.7 0 385.8 0C343 0 300 0 257.2 0C214.3 0 171.7 0 128.8 0C86 0 43 0 21.5 0L0 0Z" fill="#003e8c"></path><path d="M0 52L21.5 49.7C43 47.3 86 42.7 128.8 43.3C171.7 44 214.3 50 257.2 52.5C300 55 343 54 385.8 56.3C428.7 58.7 471.3 64.3 514.2 67C557 69.7 600 69.3 642.8 64.3C685.7 59.3 728.3 49.7 771.2 48.3C814 47 857 54 878.5 57.5L900 61L900 0L878.5 0C857 0 814 0 771.2 0C728.3 0 685.7 0 642.8 0C600 0 557 0 514.2 0C471.3 0 428.7 0 385.8 0C343 0 300 0 257.2 0C214.3 0 171.7 0 128.8 0C86 0 43 0 21.5 0L0 0Z" fill="#0052c5"></path><path d="M0 29L21.5 28.3C43 27.7 86 26.3 128.8 27C171.7 27.7 214.3 30.3 257.2 33.2C300 36 343 39 385.8 40.8C428.7 42.7 471.3 43.3 514.2 40.8C557 38.3 600 32.7 642.8 29.3C685.7 26 728.3 25 771.2 27.7C814 30.3 857 36.7 878.5 39.8L900 43L900 0L878.5 0C857 0 814 0 771.2 0C728.3 0 685.7 0 642.8 0C600 0 557 0 514.2 0C471.3 0 428.7 0 385.8 0C343 0 300 0 257.2 0C214.3 0 171.7 0 128.8 0C86 0 43 0 21.5 0L0 0Z" fill="#0066ff"></path></svg>