<svg id="visual" viewBox="0 0 900 10" width="900" height="10" xmlns="http://www.w3.org/2000/svg" xmlns:xlink="http://www.w3.org/1999/xlink" version="1.1"><path d="M0 2L13.7 2C27.3 2 54.7 2 82 2.2C109.3 2.3 136.7 2.7 163.8 2.7C191 2.7 218 2.3 245.2 2.2C272.3 2 299.7 2 327 2C354.3 2 381.7 2 409 2C436.3 2 463.7 2 491 2C518.3 2 545.7 2 573 2C600.3 2 627.7 2 654.8 2C682 2 709 2 736.2 2C763.3 2 790.7 2 818 2C845.3 2 872.7 2 886.3 2L900 2L900 0L886.3 0C872.7 0 845.3 0 818 0C790.7 0 763.3 0 736.2 0C709 0 682 0 654.8 0C627.7 0 600.3 0 573 0C545.7 0 518.3 0 491 0C463.7 0 436.3 0 409 0C381.7 0 354.3 0 327 0C299.7 0 272.3 0 245.2 0C218 0 191 0 163.8 0C136.7 0 109.3 0 82 0C54.7 0 27.3 0 13.7 0L0 0Z" fill="#001b98"></path><path d="M0 2L13.7 2.2C27.3 2.3 54.7 2.7 82 3C109.3 3.3 136.7 3.7 163.8 3.7C191 3.7 218 3.3 245.2 3.2C272.3 3 299.7 3 327 3C354.3 3 381.7 3 409 3C436.3 3 463.7 3 491 3C518.3 3 545.7 3 573 3C600.3 3 627.7 3 654.8 3C682 3 709 3 736.2 3C763.3 3 790.7 3 818 3C845.3 3 872.7 3 886.3 3L900 3L900 0L886.3 0C872.7 0 845.3 0 818 0C790.7 0 763.3 0 736.2 0C709 0 682 0 654.8 0C627.7 0 600.3 0 573 0C545.7 0 518.3 0 491 0C463.7 0 436.3 0 409 0C381.7 0 354.3 0 327 0C299.7 0 272.3 0 245.2 0.2C218 0.3 191 0.7 163.8 0.7C136.7 0.7 109.3 0.3 82 0.2C54.7 0 27.3 0 13.7 0L0 0Z" fill="#062aac"></path><path d="M0 4L13.7 4C27.3 4 54.7 4 82 4.2C109.3 4.3 136.7 4.7 163.8 4.7C191 4.7 218 4.3 245.2 4.3C272.3 4.3 299.7 4.7 327 4.8C354.3 5 381.7 5 409 5.2C436.3 5.3 463.7 5.7 491 5.7C518.3 5.7 545.7 5.3 573 5.2C600.3 5 627.7 5 654.8 5C682 5 709 5 736.2 5C763.3 5 790.7 5 818 5C845.3 5 872.7 5 886.3 5L900 5L900 1L886.3 1C872.7 1 845.3 1 818 1C790.7 1 763.3 1 736.2 1C709 1 682 1 654.8 1C627.7 1 600.3 1 573 1C545.7 1 518.3 1 491 1C463.7 1 436.3 1 409 1C381.7 1 354.3 1 327 1C299.7 1 272.3 1 245.2 1.2C218 1.3 191 1.7 163.8 1.7C136.7 1.7 109.3 1.3 82 1C54.7 0.7 27.3 0.3 13.7 0.2L0 0Z" fill="#0b39c0"></path><path d="M0 7L13.7 6.8C27.3 6.7 54.7 6.3 82 6.7C109.3 7 136.7 8 163.8 8.2C191 8.3 218 7.7 245.2 7.3C272.3 7 299.7 7 327 7C354.3 7 381.7 7 409 7C436.3 7 463.7 7 491 7C518.3 7 545.7 7 573 7C600.3 7 627.7 7 654.8 7C682 7 709 7 736.2 7.2C763.3 7.3 790.7 7.7 818 7.8C845.3 8 872.7 8 886.3 8L900 8L900 3L886.3 3C872.7 3 845.3 3 818 3C790.7 3 763.3 3 736.2 3C709 3 682 3 654.8 3C627.7 3 600.3 3 573 3.2C545.7 3.3 518.3 3.7 491 3.7C463.7 3.7 436.3 3.3 409 3.2C381.7 3 354.3 3 327 2.8C299.7 2.7 272.3 2.3 245.2 2.3C218 2.3 191 2.7 163.8 2.7C136.7 2.7 109.3 2.3 82 2.2C54.7 2 27.3 2 13.7 2L0 2Z" fill="#0c47d4"></path><path d="M0 8L13.7 8C27.3 8 54.7 8 82 8.3C109.3 8.7 136.7 9.3 163.8 9.3C191 9.3 218 8.7 245.2 8.3C272.3 8 299.7 8 327 8.2C354.3 8.3 381.7 8.7 409 8.7C436.3 8.7 463.7 8.3 491 8.2C518.3 8 545.7 8 573 8C600.3 8 627.7 8 654.8 8C682 8 709 8 736.2 8.2C763.3 8.3 790.7 8.7 818 8.8C845.3 9 872.7 9 886.3 9L900 9L900 6L886.3 6C872.7 6 845.3 6 818 5.8C790.7 5.7 763.3 5.3 736.2 5.2C709 5 682 5 654.8 5C627.7 5 600.3 5 573 5C545.7 5 518.3 5 491 5C463.7 5 436.3 5 409 5C381.7 5 354.3 5 327 5C299.7 5 272.3 5 245.2 5.3C218 5.7 191 6.3 163.8 6.2C136.7 6 109.3 5 82 4.7C54.7 4.3 27.3 4.7 13.7 4.8L0 5Z" fill="#0957ea"></path><path d="M0 11L13.7 11C27.3 11 54.7 11 82 11C109.3 11 136.7 11 163.8 11C191 11 218 11 245.2 11C272.3 11 299.7 11 327 11C354.3 11 381.7 11 409 11C436.3 11 463.7 11 491 11C518.3 11 545.7 11 573 11C600.3 11 627.7 11 654.8 11C682 11 709 11 736.2 11C763.3 11 790.7 11 818 11C845.3 11 872.7 11 886.3 11L900 11L900 7L886.3 7C872.7 7 845.3 7 818 6.8C790.7 6.7 763.3 6.3 736.2 6.2C709 6 682 6 654.8 6C627.7 6 600.3 6 573 6C545.7 6 518.3 6 491 6.2C463.7 6.3 436.3 6.7 409 6.7C381.7 6.7 354.3 6.3 327 6.2C299.7 6 272.3 6 245.2 6.3C218 6.7 191 7.3 163.8 7.3C136.7 7.3 109.3 6.7 82 6.3C54.7 6 27.3 6 13.7 6L0 6Z" fill="#0066ff"></path></svg>