<svg id="visual" viewBox="0 0 960 2000" width="960" height="2000" xmlns="http://www.w3.org/2000/svg" xmlns:xlink="http://www.w3.org/1999/xlink" version="1.1"><rect x="0" y="0" width="960" height="2000" fill="#a0c6fa"></rect><defs><linearGradient id="grad1_0" x1="0%" y1="100%" x2="100%" y2="0%"><stop offset="30%" stop-color="#4fa1ee" stop-opacity="1"></stop><stop offset="70%" stop-color="#4fa1ee" stop-opacity="1"></stop></linearGradient></defs><defs><linearGradient id="grad1_1" x1="0%" y1="100%" x2="100%" y2="0%"><stop offset="30%" stop-color="#4fa1ee" stop-opacity="1"></stop><stop offset="70%" stop-color="#67aaf1" stop-opacity="1"></stop></linearGradient></defs><defs><linearGradient id="grad1_2" x1="0%" y1="100%" x2="100%" y2="0%"><stop offset="30%" stop-color="#7cb3f4" stop-opacity="1"></stop><stop offset="70%" stop-color="#67aaf1" stop-opacity="1"></stop></linearGradient></defs><defs><linearGradient id="grad1_3" x1="0%" y1="100%" x2="100%" y2="0%"><stop offset="30%" stop-color="#7cb3f4" stop-opacity="1"></stop><stop offset="70%" stop-color="#8fbdf7" stop-opacity="1"></stop></linearGradient></defs><defs><linearGradient id="grad1_4" x1="0%" y1="100%" x2="100%" y2="0%"><stop offset="30%" stop-color="#a0c6fa" stop-opacity="1"></stop><stop offset="70%" stop-color="#8fbdf7" stop-opacity="1"></stop></linearGradient></defs><defs><linearGradient id="grad2_0" x1="0%" y1="100%" x2="100%" y2="0%"><stop offset="30%" stop-color="#4fa1ee" stop-opacity="1"></stop><stop offset="70%" stop-color="#4fa1ee" stop-opacity="1"></stop></linearGradient></defs><defs><linearGradient id="grad2_1" x1="0%" y1="100%" x2="100%" y2="0%"><stop offset="30%" stop-color="#67aaf1" stop-opacity="1"></stop><stop offset="70%" stop-color="#4fa1ee" stop-opacity="1"></stop></linearGradient></defs><defs><linearGradient id="grad2_2" x1="0%" y1="100%" x2="100%" y2="0%"><stop offset="30%" stop-color="#67aaf1" stop-opacity="1"></stop><stop offset="70%" stop-color="#7cb3f4" stop-opacity="1"></stop></linearGradient></defs><defs><linearGradient id="grad2_3" x1="0%" y1="100%" x2="100%" y2="0%"><stop offset="30%" stop-color="#8fbdf7" stop-opacity="1"></stop><stop offset="70%" stop-color="#7cb3f4" stop-opacity="1"></stop></linearGradient></defs><defs><linearGradient id="grad2_4" x1="0%" y1="100%" x2="100%" y2="0%"><stop offset="30%" stop-color="#8fbdf7" stop-opacity="1"></stop><stop offset="70%" stop-color="#a0c6fa" stop-opacity="1"></stop></linearGradient></defs><g transform="translate(960, 2000)"><path d="M-912 0C-918 -113.3 -924 -226.5 -834.1 -271C-744.1 -315.5 -558.2 -291.2 -509.7 -370.3C-461.2 -449.4 -550.2 -631.7 -531.9 -732.2C-513.7 -832.6 -388.3 -851 -281.8 -867.4C-175.3 -883.7 -87.7 -897.8 0 -912L0 0Z" fill="#97c1f9"></path><path d="M-729.6 0C-734.4 -90.6 -739.2 -181.2 -667.3 -216.8C-595.3 -252.4 -446.5 -233 -407.7 -296.2C-369 -359.5 -440.1 -505.4 -425.6 -585.7C-411 -666.1 -310.7 -680.8 -225.5 -693.9C-140.2 -706.9 -70.1 -718.3 0 -729.6L0 0Z" fill="#86b8f6"></path><path d="M-547.2 0C-550.8 -68 -554.4 -135.9 -500.4 -162.6C-446.5 -189.3 -334.9 -174.7 -305.8 -222.2C-276.7 -269.6 -330.1 -379 -319.2 -439.3C-308.2 -499.5 -233 -510.6 -169.1 -520.4C-105.2 -530.2 -52.6 -538.7 0 -547.2L0 0Z" fill="#72aff3"></path><path d="M-364.8 0C-367.2 -45.3 -369.6 -90.6 -333.6 -108.4C-297.6 -126.2 -223.3 -116.5 -203.9 -148.1C-184.5 -179.7 -220.1 -252.7 -212.8 -292.9C-205.5 -333 -155.3 -340.4 -112.7 -346.9C-70.1 -353.5 -35.1 -359.1 0 -364.8L0 0Z" fill="#5ca6f0"></path><path d="M-182.4 0C-183.6 -22.7 -184.8 -45.3 -166.8 -54.2C-148.8 -63.1 -111.6 -58.2 -101.9 -74.1C-92.2 -89.9 -110 -126.3 -106.4 -146.4C-102.7 -166.5 -77.7 -170.2 -56.4 -173.5C-35.1 -176.7 -17.5 -179.6 0 -182.4L0 0Z" fill="#4fa1ee"></path></g><g transform="translate(0, 0)"><path d="M912 0C835.3 82.4 758.6 164.8 694.3 225.6C630 286.4 578 325.6 555 403.2C531.9 480.9 537.7 596.9 497.9 685.2C458 773.6 372.4 834.2 281.8 867.4C191.2 900.5 95.6 906.3 0 912L0 0Z" fill="#97c1f9"></path><path d="M729.6 0C668.2 65.9 606.9 131.8 555.4 180.5C504 229.1 462.4 260.5 444 322.6C425.5 384.7 430.2 477.5 398.3 548.2C366.4 618.9 297.9 667.4 225.5 693.9C153 720.4 76.5 725 0 729.6L0 0Z" fill="#86b8f6"></path><path d="M547.2 0C501.2 49.4 455.2 98.9 416.6 135.3C378 171.8 346.8 195.4 333 241.9C319.2 288.5 322.6 358.1 298.7 411.1C274.8 464.1 223.4 500.5 169.1 520.4C114.7 540.3 57.4 543.8 0 547.2L0 0Z" fill="#72aff3"></path><path d="M364.8 0C334.1 33 303.4 65.9 277.7 90.2C252 114.6 231.2 130.2 222 161.3C212.8 192.3 215.1 238.8 199.1 274.1C183.2 309.4 149 333.7 112.7 346.9C76.5 360.2 38.2 362.5 0 364.8L0 0Z" fill="#5ca6f0"></path><path d="M182.4 0C167.1 16.5 151.7 33 138.9 45.1C126 57.3 115.6 65.1 111 80.6C106.4 96.2 107.5 119.4 99.6 137C91.6 154.7 74.5 166.8 56.4 173.5C38.2 180.1 19.1 181.3 0 182.4L0 0Z" fill="#4fa1ee"></path></g></svg>