<svg id="visual" viewBox="0 0 960 2000" width="960" height="2000" xmlns="http://www.w3.org/2000/svg" xmlns:xlink="http://www.w3.org/1999/xlink" version="1.1"><rect x="0" y="0" width="960" height="2000" fill="#a0e0f9"></rect><defs><linearGradient id="grad1_0" x1="0%" y1="100%" x2="100%" y2="0%"><stop offset="30%" stop-color="#0023ec" stop-opacity="1"></stop><stop offset="70%" stop-color="#0023ec" stop-opacity="1"></stop></linearGradient></defs><defs><linearGradient id="grad1_1" x1="0%" y1="100%" x2="100%" y2="0%"><stop offset="30%" stop-color="#0023ec" stop-opacity="1"></stop><stop offset="70%" stop-color="#0097ff" stop-opacity="1"></stop></linearGradient></defs><defs><linearGradient id="grad1_2" x1="0%" y1="100%" x2="100%" y2="0%"><stop offset="30%" stop-color="#a0e0f9" stop-opacity="1"></stop><stop offset="70%" stop-color="#0097ff" stop-opacity="1"></stop></linearGradient></defs><defs><linearGradient id="grad2_0" x1="0%" y1="100%" x2="100%" y2="0%"><stop offset="30%" stop-color="#0023ec" stop-opacity="1"></stop><stop offset="70%" stop-color="#0023ec" stop-opacity="1"></stop></linearGradient></defs><defs><linearGradient id="grad2_1" x1="0%" y1="100%" x2="100%" y2="0%"><stop offset="30%" stop-color="#0097ff" stop-opacity="1"></stop><stop offset="70%" stop-color="#0023ec" stop-opacity="1"></stop></linearGradient></defs><defs><linearGradient id="grad2_2" x1="0%" y1="100%" x2="100%" y2="0%"><stop offset="30%" stop-color="#0097ff" stop-opacity="1"></stop><stop offset="70%" stop-color="#a0e0f9" stop-opacity="1"></stop></linearGradient></defs><g transform="translate(960, 2000)"><path d="M-912 0C-822.8 -74.3 -733.5 -148.7 -674.3 -219.1C-615.1 -289.5 -585.9 -355.9 -533.1 -387.4C-480.4 -418.8 -403.9 -415.1 -368 -506.4C-332 -597.7 -336.4 -784 -281.8 -867.4C-227.2 -950.8 -113.6 -931.4 0 -912L0 0Z" fill="#14beff"></path><path d="M-608 0C-548.5 -49.6 -489 -99.1 -449.5 -146.1C-410.1 -193 -390.6 -237.3 -355.4 -258.2C-320.2 -279.2 -269.3 -276.8 -245.3 -337.6C-221.3 -398.5 -224.3 -522.6 -187.9 -578.2C-151.5 -633.9 -75.7 -620.9 0 -608L0 0Z" fill="#0069ff"></path><path d="M-304 0C-274.3 -24.8 -244.5 -49.6 -224.8 -73C-205 -96.5 -195.3 -118.6 -177.7 -129.1C-160.1 -139.6 -134.6 -138.4 -122.7 -168.8C-110.7 -199.2 -112.1 -261.3 -93.9 -289.1C-75.7 -316.9 -37.9 -310.5 0 -304L0 0Z" fill="#0023ec"></path></g><g transform="translate(0, 0)"><path d="M912 0C815.4 65.5 718.8 131 706.6 229.6C694.4 328.2 766.6 459.8 737.8 536.1C709.1 612.3 579.5 633.3 485.5 668.2C391.6 703.2 333.3 752.1 258.3 795.1C183.4 838 91.7 875 0 912L0 0Z" fill="#14beff"></path><path d="M608 0C543.6 43.7 479.2 87.4 471.1 153.1C462.9 218.8 511 306.5 491.9 357.4C472.7 408.2 386.3 422.2 323.7 445.5C261 468.8 222.2 501.4 172.2 530.1C122.2 558.7 61.1 583.3 0 608L0 0Z" fill="#0069ff"></path><path d="M304 0C271.8 21.8 239.6 43.7 235.5 76.5C231.5 109.4 255.5 153.3 245.9 178.7C236.4 204.1 193.2 211.1 161.8 222.7C130.5 234.4 111.1 250.7 86.1 265C61.1 279.3 30.6 291.7 0 304L0 0Z" fill="#0023ec"></path></g></svg>